<svg t="1599030668096" class="icon" viewBox="0 0 1024 1024" version="1.1" xmlns="http://www.w3.org/2000/svg" p-id="2632" width="200" height="200"><path d="M780.87342012 564.62591763V231.69066266L512 168.76724451 243.12657988 231.69066266v333.03874778c0 114.8766346 84.70858101 210.6071633 268.87342012 287.13984009 184.21658509-76.58442278 268.87342012-172.31495146 268.87342012-287.19158693zM175.95997082 564.78115641v-388.09673843L512 98.03014571l336.09177516 78.65427227v387.94149965c0 153.6863088-112.03059201 274.15153576-336.09177516 361.34393666C287.93881598 838.77745339 175.90822484 718.3122264 175.90822484 564.72941043z" fill="#ffffff" p-id="2633"></path><path d="M682.60894078 283.83623495L564.15171747 494.96847088h90.20837671V547.2376466H547.12018835v59.43416505H654.1251767V658.82352912H547.12018835v90.61948253H471.00687087V658.82352912H360.65430583v-52.2104466h110.41129417V547.2376466h-110.41129417v-52.38663495h91.61788252L336.39905923 283.83623495h83.16084659l77.11171748 160.39002428c2.93647087 6.04912912 5.57929418 11.9808 8.10465923 17.79501164 2.46663495 5.81421165 4.6396233 11.45223495 6.46023495 17.03152913h1.17458835c4.22851748-12.56809417 9.22051747-24.78381165 15.03472912-36.6471534l76.46569418-158.56941165h78.75614175z" fill="#ffffff" p-id="2634"></path></svg>